<svg version="1.1" id="Layer_1" xmlns="http://www.w3.org/2000/svg" x="0" y="0" viewBox="0 0 424 141" xml:space="preserve">
  <style>
    .st0{fill:#fff}
  </style>
  <g id="Group_11" transform="translate(-21.922 -23.223)">
	<!-- White letters  -->
    <g id="Group_9" transform="translate(296.476 75.147)">
      <path id="Path_2" class="st0" d="M28.19 16.72c0 5.04-1.05 8.7-3.14 10.97s-5.43 3.41-10.02 3.41-7.93-1.14-10.04-3.43c-2.11-2.29-3.16-5.94-3.16-10.97S2.88 8.02 4.97 5.75c2.09-2.27 5.44-3.41 10.04-3.41 4.6 0 7.95 1.14 10.04 3.41s3.14 5.93 3.14 10.97zm-16.69 0c-.09 1.71.14 3.43.68 5.06a2.79 2.79 0 002.85 1.55c1.17.15 2.31-.46 2.83-1.53.53-1.64.76-3.37.66-5.1.1-1.72-.12-3.44-.64-5.08a2.74 2.74 0 00-2.83-1.51c-1.19-.15-2.35.47-2.87 1.55a13.39 13.39 0 00-.68 5.06z"/>
      <path id="Path_3" class="st0" d="M30.09 30.56V2.88h9.42l6.36 10.49h.58V2.88h9.58v27.68h-9.46l-6.28-11.28h-.62v11.28h-9.58z"/>
      <path id="Path_4" class="st0" d="M77.1 30.56H58.51V2.88h9.59v19.87h9v7.81z"/>
      <path id="Path_5" class="st0" d="M78.58 8.38V2.06h9.34v6.32h-9.34zm.05 22.18V9.7h9.25v20.86h-9.25z"/>
      <path id="Path_6" class="st0" d="M90.28 30.56V2.88h9.42l6.36 10.49h.58V2.88h9.58v27.68h-9.46l-6.28-11.28h-.62v11.28h-9.58z"/>
      <path id="Path_7" class="st0" d="M118.7 30.56V2.88h20.74v7.64h-11.15v2.36h8.67v7.56h-8.67v2.48h11.15v7.64H118.7z"/>
    </g>
    <path class="st0" d="M289.24 120.2a7.657 7.657 0 01-6.92-7.81V70.96c0-6.57 5.66-7.46 6.85-7.58l156.75-.15v-2l-156.75.01-70.21 1.74-1.41.01v.2l-5.1.04-1.22.02s-24.14-.66-35.7-13.13a7.217 7.217 0 00-5.94-2.2c-5.17.9-10.99 1.58-17.25 2.07l-.88-6.1a.587.587 0 00-.56-.49v-.7c.14-.1.22-.26.23-.43v-.1c1.15-.06 2.3-.26 3.41-.59l3.65-1.21a2.92 2.92 0 001.88-2.58l.02-5.9a2.924 2.924 0 00-1.86-2.6l-3.64-1.23a15.05 15.05 0 00-3.83-.64l-5.9-.02c-1.3.03-2.59.24-3.84.61l-3.65 1.2a2.932 2.932 0 00-1.88 2.58l-.02 5.9c.05 1.16.78 2.18 1.86 2.6l3.64 1.23c1.11.33 2.25.54 3.4.61v.08c.01.17.09.33.23.44v.7c-.28.01-.52.21-.57.49l-1.02 6.7c-9.4.43-19.49.5-29.71.27l-.93-6.47a.587.587 0 00-.56-.49v-.7c.14-.11.22-.27.23-.44v-.08c1.16-.06 2.3-.25 3.41-.58l3.65-1.2a2.932 2.932 0 001.88-2.58l.02-5.9a2.924 2.924 0 00-1.86-2.6l-3.64-1.23c-1.24-.38-2.53-.59-3.83-.63l-5.9-.02c-1.3.03-2.59.23-3.84.6l-3.65 1.21a2.932 2.932 0 00-1.88 2.58l-.02 5.9c.05 1.16.78 2.18 1.86 2.6l3.64 1.23c1.11.34 2.25.54 3.4.61v.08c.01.17.09.34.23.44v.7c-.28.01-.52.21-.57.48l-.94 6.21c-10.36-.41-20.66-1.1-30.35-1.99l-.98-6.79a.579.579 0 00-.56-.49v-.7c.14-.11.22-.26.23-.44v-.08c1.15-.06 2.3-.26 3.41-.59l3.65-1.21a2.92 2.92 0 001.88-2.58l.02-5.9a2.914 2.914 0 00-1.85-2.6l-3.64-1.23c-1.24-.38-2.53-.59-3.83-.63l-5.9-.02c-1.3.03-2.59.23-3.84.61l-3.65 1.2a2.92 2.92 0 00-1.88 2.58l-.02 5.9c.05 1.16.78 2.18 1.86 2.6l3.64 1.23c1.11.34 2.25.54 3.4.61v.08c.01.17.09.33.23.44v.7c-.28.01-.52.21-.57.49l-.89 5.88c-11.27-1.25-21.32-2.78-29.11-4.46A1.754 1.754 0 0033 45.06c.68 14.38-3.26 21.31-5.82 26.96-2.7 5.96-5.19 13.57-1.51 19.14v.82c-3.72 5.55-1.28 13.17 1.38 19.15 2.52 5.66 6.41 12.63 5.63 26.99-.14.96.52 1.85 1.49 1.99.25.04.51.02.75-.05 7.79-1.62 17.86-3.08 29.14-4.26l.85 5.88c.05.28.28.48.56.49v.7c-.14.11-.22.27-.23.44v.08c-1.15.06-2.3.26-3.41.59l-3.65 1.2a2.934 2.934 0 00-1.88 2.59l-.02 5.9c.05 1.16.78 2.18 1.86 2.6l3.64 1.23c1.24.38 2.53.59 3.83.63l5.9.02c1.3-.03 2.59-.23 3.84-.61l3.65-1.2a2.934 2.934 0 001.88-2.59l.02-5.9a2.91 2.91 0 00-1.86-2.59l-3.64-1.23c-1.11-.33-2.25-.54-3.4-.61v-.09a.601.601 0 00-.23-.44v-.7c.28-.01.52-.21.57-.48l1.03-6.79c9.7-.83 20.01-1.45 30.36-1.78l.89 6.21c.05.28.28.48.56.49v.7c-.14.1-.22.26-.23.43v.09c-1.15.06-2.3.26-3.41.59l-3.65 1.2a2.932 2.932 0 00-1.88 2.58l-.02 5.9c.05 1.16.78 2.18 1.86 2.6l3.64 1.23c1.24.38 2.53.6 3.83.64l5.91.02c1.3-.03 2.59-.24 3.84-.61l3.65-1.2a2.932 2.932 0 001.88-2.58l.02-5.9a2.924 2.924 0 00-1.86-2.6l-3.64-1.23a14.63 14.63 0 00-3.4-.61V141a.601.601 0 00-.23-.44v-.7c.28 0 .52-.21.56-.48l.98-6.46c10.23-.16 20.32-.02 29.71.48l.97 6.71c.05.28.28.48.56.49v.7c-.14.1-.22.27-.23.44v.09c-1.15.06-2.3.26-3.41.58l-3.65 1.2a2.92 2.92 0 00-1.88 2.58l-.02 5.9c.05 1.16.78 2.18 1.86 2.6l3.64 1.23c1.24.38 2.53.6 3.83.64l5.9.02c1.3-.03 2.59-.24 3.84-.61l3.65-1.2a2.934 2.934 0 001.88-2.59l.02-5.9a2.924 2.924 0 00-1.86-2.6l-3.64-1.23a14.63 14.63 0 00-3.4-.61v-.08a.601.601 0 00-.23-.44v-.7c.28 0 .52-.21.56-.48l.92-6.1c6.25.53 12.07 1.25 17.23 2.19 2.21.24 4.41-.56 5.95-2.16 11.65-12.39 35.8-12.88 35.8-12.88l1.22.02 5.11.08v.2l1.41.02 70.49.81 156.68-.1v-2l-156.7-.02zm-161.66-16.16c-1.83 1.47-4.6 2.21-8.29 2.21-1.87-.01-3.74-.13-5.6-.38-1.96-.25-3.47-.5-4.52-.75l-1.63-.38.42-7.38c3.46.55 6.96.85 10.46.92 1.44 0 2.16-.32 2.16-.96a.64.64 0 00-.5-.6c-.89-.24-1.79-.41-2.71-.52-3.89-.61-6.53-1.56-7.94-2.85-1.4-1.29-2.1-3.41-2.1-6.35 0-3.75.9-6.32 2.71-7.71s4.58-2.08 8.33-2.08c3.11.04 6.22.3 9.29.79l1.75.29-.26 7.5c-3.92-.42-6.76-.63-8.54-.63-1.04-.05-2.07 0-3.1.15-.27.07-.46.32-.44.6.01.32.2.6.5.71 1.02.36 2.08.64 3.15.83 1.46.31 2.91.69 4.33 1.14 1.09.36 2.12.9 3.04 1.59.86.61 1.49 1.49 1.79 2.5.33 1.3.48 2.64.44 3.98.01 3.45-.91 5.9-2.74 7.38zm24.12-18.42h-5.42v20.04h-9.67V85.62h-5.75v-7.88h20.83v7.88zm25.12 20.04h-9.83l-1.58-7.21h-2.37v7.21h-9.67V77.75h11.75c4.3 0 7.39.72 9.25 2.15s2.79 4.08 2.79 7.96c0 3.87-1.03 6.64-3.08 8.31l2.74 9.49zm11.92 0h-9.67V77.75h9.67v27.91zm28.66 0h-9.54l-6.33-11.38h-.63v11.38h-9.67V77.75h9.5l6.42 10.58h.58V77.75h9.67v27.91zm25.92-.83c-3.69.67-7.42 1.07-11.17 1.21-2.09.04-4.18-.23-6.19-.81a7.977 7.977 0 01-4.02-2.69c-1-1.3-1.69-2.81-2.02-4.42-.42-2.13-.6-4.29-.56-6.46 0-5.36 1-9.11 3-11.25s5.37-3.21 10.12-3.21c1.6.01 3.21.13 4.79.35 1.78.24 3.19.47 4.25.69l1.58.38v7.29c-4-.36-6.84-.54-8.52-.54-1.1-.05-2.21.03-3.29.23-.44.12-.85.3-1.23.54-.37.31-.6.75-.66 1.23-.24 1.5-.34 3.02-.29 4.54-.1 1.61.16 3.23.75 4.73a3.066 3.066 0 003.04 1.48l1.42-.04V96h-1.25l-.04-6.75h10.29v15.58zm22.04-.8c-1.83 1.47-4.6 2.21-8.29 2.21-1.87-.01-3.74-.13-5.6-.38-1.96-.25-3.47-.5-4.52-.75l-1.63-.38.42-7.38c3.46.55 6.95.85 10.46.92 1.44 0 2.16-.32 2.17-.96a.64.64 0 00-.5-.6c-.89-.24-1.79-.41-2.71-.52-3.89-.61-6.53-1.56-7.94-2.85-1.4-1.29-2.1-3.41-2.1-6.35 0-3.75.9-6.32 2.71-7.71 1.8-1.39 4.58-2.08 8.33-2.08 3.11.04 6.22.3 9.29.79l1.75.29-.26 7.5c-3.91-.42-6.76-.63-8.54-.63-1.04-.05-2.07 0-3.1.15-.27.07-.46.32-.44.6.01.32.21.6.5.71 1.03.36 2.08.64 3.15.83 1.46.31 2.91.69 4.33 1.14 1.09.36 2.12.89 3.04 1.59.86.61 1.49 1.49 1.79 2.5.33 1.3.48 2.64.44 3.98.01 3.45-.91 5.91-2.75 7.38z"/>
    <path class="st0" d="M165.12 85.37h-2.13v5.46h2.38c1.36 0 2.04-.91 2.04-2.73 0-1.82-.77-2.73-2.29-2.73z"/>
  </g>
</svg>